<svg width="800" height="620" xmlns="http://www.w3.org/2000/svg" version="1.1"><g transform="translate(0,10)"><g><path class="link" d="M10,196.95112179487182C400,196.95112179487182 400,471.6225961538462 790,471.6225961538462" style="stroke-width: 6.81891; fill: none; stroke: rgb(255, 59, 48); stroke-opacity: 0.4;"></path><path class="link" d="M10,293.61778846153845C400,293.61778846153845 400,505.2123397435898 790,505.2123397435898" style="stroke-width: 6.08173; fill: none; stroke: rgb(255, 59, 48); stroke-opacity: 0.4;"></path><path class="link" d="M10,341.5825320512821C400,341.5825320512821 400,334.25881410256414 790,334.25881410256414" style="stroke-width: 5.34455; fill: none; stroke: rgb(255, 204, 0); stroke-opacity: 0.4;"></path><path class="link" d="M10,376.8309294871795C400,376.8309294871795 400,305.8293269230769 790,305.8293269230769" style="stroke-width: 5.34455; fill: none; stroke: rgb(255, 59, 48); stroke-opacity: 0.4;"></path><path class="link" d="M10,180.08814102564102C400,180.08814102564102 400,216.4823717948718 790,216.4823717948718" style="stroke-width: 4.79167; fill: none; stroke: rgb(255, 59, 48); stroke-opacity: 0.4;"></path><path class="link" d="M10,230.44871794871798C400,230.44871794871798 400,325.6891025641026 790,325.6891025641026" style="stroke-width: 4.79167; fill: none; stroke: rgb(255, 204, 0); stroke-opacity: 0.4;"></path><path class="link" d="M10,187.64423076923077C400,187.64423076923077 400,320.8974358974359 790,320.8974358974359" style="stroke-width: 4.79167; fill: none; stroke: rgb(255, 59, 48); stroke-opacity: 0.4;"></path><path class="link" d="M10,336.5144230769231C400,336.5144230769231 400,300.76121794871796 790,300.76121794871796" style="stroke-width: 4.79167; fill: none; stroke: rgb(255, 204, 0); stroke-opacity: 0.4;"></path><path class="link" d="M10,266.80288461538464C400,266.80288461538464 400,131.83493589743588 790,131.83493589743588" style="stroke-width: 4.42308; fill: none; stroke: rgb(255, 59, 48); stroke-opacity: 0.4;"></path><path class="link" d="M10,413.1850961538462C400,413.1850961538462 400,140.22035256410257 790,140.22035256410257" style="stroke-width: 4.23878; fill: none; stroke: rgb(255, 204, 0); stroke-opacity: 0.4;"></path><path class="link" d="M10,271.13381410256414C400,271.13381410256414 400,223.9463141025641 790,223.9463141025641" style="stroke-width: 4.23878; fill: none; stroke: rgb(255, 59, 48); stroke-opacity: 0.4;"></path><path class="link" d="M10,319.5592948717949C400,319.5592948717949 400,136.07371794871796 790,136.07371794871796" style="stroke-width: 4.05449; fill: none; stroke: rgb(255, 204, 0); stroke-opacity: 0.4;"></path><path class="link" d="M10,288.5496794871795C400,288.5496794871795 400,480.56089743589746 790,480.56089743589746" style="stroke-width: 4.05449; fill: none; stroke: rgb(255, 59, 48); stroke-opacity: 0.4;"></path><path class="link" d="M10,369.45913461538464C400,369.45913461538464 400,100.31650641025642 790,100.31650641025642" style="stroke-width: 3.87019; fill: none; stroke: rgb(255, 59, 48); stroke-opacity: 0.4;"></path><path class="link" d="M10,246.02163461538464C400,246.02163461538464 400,500.23637820512823 790,500.23637820512823" style="stroke-width: 3.87019; fill: none; stroke: rgb(255, 204, 0); stroke-opacity: 0.4;"></path><path class="link" d="M10,275.18830128205127C400,275.18830128205127 400,279.79567307692304 790,279.79567307692304" style="stroke-width: 3.87019; fill: none; stroke: rgb(255, 59, 48); stroke-opacity: 0.4;"></path><path class="link" d="M10,332.1834935897436C400,332.1834935897436 400,283.66586538461536 790,283.66586538461536" style="stroke-width: 3.87019; fill: none; stroke: rgb(255, 204, 0); stroke-opacity: 0.4;"></path><path class="link" d="M10,249.7996794871795C400,249.7996794871795 400,522.6762820512821 790,522.6762820512821" style="stroke-width: 3.6859; fill: none; stroke: rgb(255, 204, 0); stroke-opacity: 0.4;"></path><path class="link" d="M10,325.82532051282055C400,325.82532051282055 400,187.08333333333334 790,187.08333333333334" style="stroke-width: 3.6859; fill: none; stroke: rgb(255, 204, 0); stroke-opacity: 0.4;"></path><path class="link" d="M10,426.17788461538464C400,426.17788461538464 400,341.9070512820513 790,341.9070512820513" style="stroke-width: 3.6859; fill: none; stroke: rgb(255, 204, 0); stroke-opacity: 0.4;"></path><path class="link" d="M10,432.5360576923077C400,432.5360576923077 400,416.14182692307696 790,416.14182692307696" style="stroke-width: 3.5016; fill: none; stroke: rgb(255, 204, 0); stroke-opacity: 0.4;"></path><path class="link" d="M10,278.87419871794873C400,278.87419871794873 400,329.8357371794872 790,329.8357371794872" style="stroke-width: 3.5016; fill: none; stroke: rgb(255, 59, 48); stroke-opacity: 0.4;"></path><path class="link" d="M10,419.6354166666667C400,419.6354166666667 400,240.39663461538458 790,240.39663461538458" style="stroke-width: 3.5016; fill: none; stroke: rgb(255, 204, 0); stroke-opacity: 0.4;"></path><path class="link" d="M10,191.7908653846154C400,191.7908653846154 400,370.66105769230774 790,370.66105769230774" style="stroke-width: 3.5016; fill: none; stroke: rgb(255, 59, 48); stroke-opacity: 0.4;"></path><path class="link" d="M10,242.33573717948718C400,242.33573717948718 400,476.7828525641026 790,476.7828525641026" style="stroke-width: 3.5016; fill: none; stroke: rgb(255, 204, 0); stroke-opacity: 0.4;"></path><path class="link" d="M10,381.06971153846155C400,381.06971153846155 400,338.4975961538462 790,338.4975961538462" style="stroke-width: 3.13301; fill: none; stroke: rgb(255, 59, 48); stroke-opacity: 0.4;"></path><path class="link" d="M10,386.59855769230774C400,386.59855769230774 400,402.8245192307693 790,402.8245192307693" style="stroke-width: 3.13301; fill: none; stroke: rgb(255, 59, 48); stroke-opacity: 0.4;"></path><path class="link" d="M10,345.82131410256414C400,345.82131410256414 400,399.69150641025647 790,399.69150641025647" style="stroke-width: 3.13301; fill: none; stroke: rgb(255, 204, 0); stroke-opacity: 0.4;"></path><path class="link" d="M10,435.8533653846154C400,435.8533653846154 400,486.7347756410257 790,486.7347756410257" style="stroke-width: 3.13301; fill: none; stroke: rgb(255, 204, 0); stroke-opacity: 0.4;"></path><path class="link" d="M10,311.17387820512823C400,311.17387820512823 400,13.962339743589745 790,13.962339743589745" style="stroke-width: 3.13301; fill: none; stroke: rgb(255, 204, 0); stroke-opacity: 0.4;"></path><path class="link" d="M10,298.1330128205128C400,298.1330128205128 400,573.1810897435898 790,573.1810897435898" style="stroke-width: 2.94872; fill: none; stroke: rgb(255, 59, 48); stroke-opacity: 0.4;"></path><path class="link" d="M10,285.0480769230769C400,285.0480769230769 400,454.34294871794873 790,454.34294871794873" style="stroke-width: 2.94872; fill: none; stroke: rgb(255, 59, 48); stroke-opacity: 0.4;"></path><path class="link" d="M10,422.8605769230769C400,422.8605769230769 400,266.3862179487179 790,266.3862179487179" style="stroke-width: 2.94872; fill: none; stroke: rgb(255, 204, 0); stroke-opacity: 0.4;"></path><path class="link" d="M10,223.8141025641026C400,223.8141025641026 400,220.3525641025641 790,220.3525641025641" style="stroke-width: 2.94872; fill: none; stroke: rgb(255, 204, 0); stroke-opacity: 0.4;"></path><path class="link" d="M10,263.1169871794872C400,263.1169871794872 400,39.39903846153847 790,39.39903846153847" style="stroke-width: 2.94872; fill: none; stroke: rgb(255, 59, 48); stroke-opacity: 0.4;"></path><path class="link" d="M10,282.09935897435895C400,282.09935897435895 400,396.65064102564105 790,396.65064102564105" style="stroke-width: 2.94872; fill: none; stroke: rgb(255, 59, 48); stroke-opacity: 0.4;"></path><path class="link" d="M10,173.63782051282053C400,173.63782051282053 400,171.37019230769232 790,171.37019230769232" style="stroke-width: 2.94872; fill: none; stroke: rgb(255, 59, 48); stroke-opacity: 0.4;"></path><path class="link" d="M10,407.1033653846154C400,407.1033653846154 400,47.23157051282052 790,47.23157051282052" style="stroke-width: 2.76442; fill: none; stroke: rgb(255, 204, 0); stroke-opacity: 0.4;"></path><path class="link" d="M10,429.4030448717949C400,429.4030448717949 400,383.79407051282055 790,383.79407051282055" style="stroke-width: 2.76442; fill: none; stroke: rgb(255, 204, 0); stroke-opacity: 0.4;"></path><path class="link" d="M10,234.22676282051285C400,234.22676282051285 400,355.1322115384616 790,355.1322115384616" style="stroke-width: 2.76442; fill: none; stroke: rgb(255, 204, 0); stroke-opacity: 0.4;"></path><path class="link" d="M10,183.8661858974359C400,183.8661858974359 400,253.52964743589743 790,253.52964743589743" style="stroke-width: 2.76442; fill: none; stroke: rgb(255, 59, 48); stroke-opacity: 0.4;"></path><path class="link" d="M10,226.6706730769231C400,226.6706730769231 400,296.9831730769231 790,296.9831730769231" style="stroke-width: 2.76442; fill: none; stroke: rgb(255, 204, 0); stroke-opacity: 0.4;"></path><path class="link" d="M10,168.38541666666669C400,168.38541666666669 400,96.99919871794872 790,96.99919871794872" style="stroke-width: 2.76442; fill: none; stroke: rgb(255, 59, 48); stroke-opacity: 0.4;"></path><path class="link" d="M10,350.98157051282055C400,350.98157051282055 400,586.0376602564103 790,586.0376602564103" style="stroke-width: 2.76442; fill: none; stroke: rgb(255, 204, 0); stroke-opacity: 0.4;"></path><path class="link" d="M10,372.7764423076923C400,372.7764423076923 400,158.5136217948718 790,158.5136217948718" style="stroke-width: 2.76442; fill: none; stroke: rgb(255, 59, 48); stroke-opacity: 0.4;"></path><path class="link" d="M10,391.85096153846155C400,391.85096153846155 400,483.87820512820514 790,483.87820512820514" style="stroke-width: 2.58013; fill: none; stroke: rgb(255, 59, 48); stroke-opacity: 0.4;"></path><path class="link" d="M10,394.4310897435897C400,394.4310897435897 400,535.8092948717949 790,535.8092948717949" style="stroke-width: 2.58013; fill: none; stroke: rgb(255, 59, 48); stroke-opacity: 0.4;"></path><path class="link" d="M10,216.44230769230774C400,216.44230769230774 400,116.12179487179488 790,116.12179487179488" style="stroke-width: 2.58013; fill: none; stroke: rgb(255, 204, 0); stroke-opacity: 0.4;"></path><path class="link" d="M10,409.77564102564105C400,409.77564102564105 400,103.54166666666667 790,103.54166666666667" style="stroke-width: 2.58013; fill: none; stroke: rgb(255, 204, 0); stroke-opacity: 0.4;"></path><path class="link" d="M10,438.7099358974359C400,438.7099358974359 400,509.5432692307693 790,509.5432692307693" style="stroke-width: 2.58013; fill: none; stroke: rgb(255, 204, 0); stroke-opacity: 0.4;"></path><path class="link" d="M10,328.95833333333337C400,328.95833333333337 400,227.35576923076923 790,227.35576923076923" style="stroke-width: 2.58013; fill: none; stroke: rgb(255, 204, 0); stroke-opacity: 0.4;"></path><path class="link" d="M10,416.59455128205127C400,416.59455128205127 400,202.79647435897436 790,202.79647435897436" style="stroke-width: 2.58013; fill: none; stroke: rgb(255, 204, 0); stroke-opacity: 0.4;"></path><path class="link" d="M10,366.23397435897436C400,366.23397435897436 400,44.559294871794876 790,44.559294871794876" style="stroke-width: 2.58013; fill: none; stroke: rgb(255, 59, 48); stroke-opacity: 0.4;"></path><path class="link" d="M10,176.40224358974362C400,176.40224358974362 400,200.21634615384616 790,200.21634615384616" style="stroke-width: 2.58013; fill: none; stroke: rgb(255, 59, 48); stroke-opacity: 0.4;"></path><path class="link" d="M10,353.6538461538462C400,353.6538461538462 400,598.7099358974359 790,598.7099358974359" style="stroke-width: 2.58013; fill: none; stroke: rgb(255, 204, 0); stroke-opacity: 0.4;"></path><path class="link" d="M10,236.89903846153848C400,236.89903846153848 400,429.1826923076923 790,429.1826923076923" style="stroke-width: 2.58013; fill: none; stroke: rgb(255, 204, 0); stroke-opacity: 0.4;"></path><path class="link" d="M10,213.95432692307693C400,213.95432692307693 400,1.1979166666666667 790,1.1979166666666667" style="stroke-width: 2.39583; fill: none; stroke: rgb(255, 204, 0); stroke-opacity: 0.4;"></path><path class="link" d="M10,322.7844551282052C400,322.7844551282052 400,155.9334935897436 790,155.9334935897436" style="stroke-width: 2.39583; fill: none; stroke: rgb(255, 204, 0); stroke-opacity: 0.4;"></path><path class="link" d="M10,161.19791666666666C400,161.19791666666666 400,59.81169871794872 790,59.81169871794872" style="stroke-width: 2.39583; fill: none; stroke: rgb(255, 59, 48); stroke-opacity: 0.4;"></path><path class="link" d="M10,163.59375C400,163.59375 400,72.20753205128206 790,72.20753205128206" style="stroke-width: 2.39583; fill: none; stroke: rgb(255, 59, 48); stroke-opacity: 0.4;"></path><path class="link" d="M10,383.83413461538464C400,383.83413461538464 400,357.71233974358984 790,357.71233974358984" style="stroke-width: 2.39583; fill: none; stroke: rgb(255, 59, 48); stroke-opacity: 0.4;"></path><path class="link" d="M10,239.38701923076925C400,239.38701923076925 400,441.67067307692315 790,441.67067307692315" style="stroke-width: 2.39583; fill: none; stroke: rgb(255, 204, 0); stroke-opacity: 0.4;"></path><path class="link" d="M10,170.96554487179486C400,170.96554487179486 400,153.53766025641025 790,153.53766025641025" style="stroke-width: 2.39583; fill: none; stroke: rgb(255, 59, 48); stroke-opacity: 0.4;"></path><path class="link" d="M10,389.36298076923083C400,389.36298076923083 400,457.0152243589744 790,457.0152243589744" style="stroke-width: 2.39583; fill: none; stroke: rgb(255, 59, 48); stroke-opacity: 0.4;"></path><path class="link" d="M10,221.14182692307693C400,221.14182692307693 400,174.04246794871796 790,174.04246794871796" style="stroke-width: 2.39583; fill: none; stroke: rgb(255, 204, 0); stroke-opacity: 0.4;"></path><path class="link" d="M10,313.9383012820513C400,313.9383012820513 400,26.72676282051282 790,26.72676282051282" style="stroke-width: 2.39583; fill: none; stroke: rgb(255, 204, 0); stroke-opacity: 0.4;"></path><path class="link" d="M10,316.33413461538464C400,316.33413461538464 400,42.0713141025641 790,42.0713141025641" style="stroke-width: 2.39583; fill: none; stroke: rgb(255, 204, 0); stroke-opacity: 0.4;"></path><path class="link" d="M10,201.5584935897436C400,201.5584935897436 400,548.2972756410256 790,548.2972756410256" style="stroke-width: 2.39583; fill: none; stroke: rgb(255, 59, 48); stroke-opacity: 0.4;"></path><path class="link" d="M10,165.89743589743588C400,165.89743589743588 400,84.51121794871794 790,84.51121794871794" style="stroke-width: 2.21154; fill: none; stroke: rgb(255, 59, 48); stroke-opacity: 0.4;"></path><path class="link" d="M10,348.4935897435898C400,348.4935897435898 400,560.6009615384617 790,560.6009615384617" style="stroke-width: 2.21154; fill: none; stroke: rgb(255, 204, 0); stroke-opacity: 0.4;"></path><path class="link" d="M10,218.83814102564105C400,218.83814102564105 400,128.5176282051282 790,128.5176282051282" style="stroke-width: 2.21154; fill: none; stroke: rgb(255, 204, 0); stroke-opacity: 0.4;"></path></g><g><g class="node" transform="translate(0,160)"><rect height="42.75641025641026" width="10"><title>2000
232</title></rect><text x="16" y="21.37820512820513" dy=".35em" text-anchor="start" style="font-size: 11px; font-family: Arial, Helvetica; pointer-events: none;">2000</text></g><g class="node" transform="translate(0,212.75641025641028)"><rect height="38.88621794871795" width="10"><title>2001
211</title></rect><text x="16" y="19.443108974358974" dy=".35em" text-anchor="start" style="font-size: 11px; font-family: Arial, Helvetica; pointer-events: none;">2001</text></g><g class="node" transform="translate(0,261.64262820512823)"><rect height="37.96474358974359" width="10"><title>2002
206</title></rect><text x="16" y="18.982371794871796" dy=".35em" text-anchor="start" style="font-size: 11px; font-family: Arial, Helvetica; pointer-events: none;">2002</text></g><g class="node" transform="translate(0,309.6073717948718)"><rect height="45.33653846153847" width="10"><title>2003
246</title></rect><text x="16" y="22.668269230769234" dy=".35em" text-anchor="start" style="font-size: 11px; font-family: Arial, Helvetica; pointer-events: none;">2003</text></g><g class="node" transform="translate(0,364.9439102564103)"><rect height="30.77724358974359" width="10"><title>2004
167</title></rect><text x="16" y="15.388621794871796" dy=".35em" text-anchor="start" style="font-size: 11px; font-family: Arial, Helvetica; pointer-events: none;">2004</text></g><g class="node" transform="translate(0,405.72115384615387)"><rect height="34.27884615384615" width="10"><title>2005
186</title></rect><text x="16" y="17.139423076923077" dy=".35em" text-anchor="start" style="font-size: 11px; font-family: Arial, Helvetica; pointer-events: none;">2005</text></g><g class="node" transform="translate(790,0)"><rect height="2.3958333333333335" width="10" style="fill: rgb(102, 102, 102);"><title>becas
13</title></rect><text x="-6" y="1.1979166666666667" dy=".35em" text-anchor="end" style="font-size: 11px; font-family: Arial, Helvetica; pointer-events: none;">becas</text></g><g class="node" transform="translate(790,12.395833333333334)"><rect height="3.1330128205128207" width="10" style="fill: rgb(102, 102, 102);"><title>calidad
17</title></rect><text x="-6" y="1.5665064102564104" dy=".35em" text-anchor="end" style="font-size: 11px; font-family: Arial, Helvetica; pointer-events: none;">calidad</text></g><g class="node" transform="translate(790,25.528846153846153)"><rect height="2.3958333333333335" width="10" style="fill: rgb(102, 102, 102);"><title>condiciones
13</title></rect><text x="-6" y="1.1979166666666667" dy=".35em" text-anchor="end" style="font-size: 11px; font-family: Arial, Helvetica; pointer-events: none;">condiciones</text></g><g class="node" transform="translate(790,37.92467948717949)"><rect height="10.689102564102566" width="10" style="fill: rgb(102, 102, 102);"><title>crecimiento
58</title></rect><text x="-6" y="5.344551282051283" dy=".35em" text-anchor="end" style="font-size: 11px; font-family: Arial, Helvetica; pointer-events: none;">crecimiento</text></g><g class="node" transform="translate(790,58.61378205128206)"><rect height="2.3958333333333335" width="10" style="fill: rgb(102, 102, 102);"><title>cultura
13</title></rect><text x="-6" y="1.1979166666666667" dy=".35em" text-anchor="end" style="font-size: 11px; font-family: Arial, Helvetica; pointer-events: none;">cultura</text></g><g class="node" transform="translate(790,71.00961538461539)"><rect height="2.3958333333333335" width="10" style="fill: rgb(102, 102, 102);"><title>defensa
13</title></rect><text x="-6" y="1.1979166666666667" dy=".35em" text-anchor="end" style="font-size: 11px; font-family: Arial, Helvetica; pointer-events: none;">defensa</text></g><g class="node" transform="translate(790,83.40544871794872)"><rect height="2.2115384615384617" width="10" style="fill: rgb(102, 102, 102);"><title>desafío
12</title></rect><text x="-6" y="1.1057692307692308" dy=".35em" text-anchor="end" style="font-size: 11px; font-family: Arial, Helvetica; pointer-events: none;">desafío</text></g><g class="node" transform="translate(790,95.61698717948718)"><rect height="9.214743589743591" width="10" style="fill: rgb(102, 102, 102);"><title>desarrollo
50</title></rect><text x="-6" y="4.607371794871796" dy=".35em" text-anchor="end" style="font-size: 11px; font-family: Arial, Helvetica; pointer-events: none;">desarrollo</text></g><g class="node" transform="translate(790,114.83173076923077)"><rect height="2.5801282051282053" width="10" style="fill: rgb(102, 102, 102);"><title>economía
14</title></rect><text x="-6" y="1.2900641025641026" dy=".35em" text-anchor="end" style="font-size: 11px; font-family: Arial, Helvetica; pointer-events: none;">economía</text></g><g class="node" transform="translate(790,127.41185897435898)"><rect height="14.927884615384617" width="10" style="fill: rgb(102, 102, 102);"><title>educación
81</title></rect><text x="-6" y="7.463942307692308" dy=".35em" text-anchor="end" style="font-size: 11px; font-family: Arial, Helvetica; pointer-events: none;">educación</text></g><g class="node" transform="translate(790,152.3397435897436)"><rect height="7.5560897435897445" width="10" style="fill: rgb(102, 102, 102);"><title>esfuerzo
41</title></rect><text x="-6" y="3.7780448717948723" dy=".35em" text-anchor="end" style="font-size: 11px; font-family: Arial, Helvetica; pointer-events: none;">esfuerzo</text></g><g class="node" transform="translate(790,169.89583333333334)"><rect height="5.344551282051283" width="10" style="fill: rgb(102, 102, 102);"><title>estado
29</title></rect><text x="-6" y="2.6722756410256414" dy=".35em" text-anchor="end" style="font-size: 11px; font-family: Arial, Helvetica; pointer-events: none;">estado</text></g><g class="node" transform="translate(790,185.2403846153846)"><rect height="3.685897435897436" width="10" style="fill: rgb(102, 102, 102);"><title>familias
20</title></rect><text x="-6" y="1.842948717948718" dy=".35em" text-anchor="end" style="font-size: 11px; font-family: Arial, Helvetica; pointer-events: none;">familias</text></g><g class="node" transform="translate(790,198.92628205128204)"><rect height="5.160256410256411" width="10" style="fill: rgb(102, 102, 102);"><title>futuro
28</title></rect><text x="-6" y="2.5801282051282053" dy=".35em" text-anchor="end" style="font-size: 11px; font-family: Arial, Helvetica; pointer-events: none;">futuro</text></g><g class="node" transform="translate(790,214.08653846153845)"><rect height="14.559294871794872" width="10" style="fill: rgb(102, 102, 102);"><title>gobierno
79</title></rect><text x="-6" y="7.279647435897436" dy=".35em" text-anchor="end" style="font-size: 11px; font-family: Arial, Helvetica; pointer-events: none;">gobierno</text></g><g class="node" transform="translate(790,238.64583333333331)"><rect height="3.5016025641025643" width="10" style="fill: rgb(102, 102, 102);"><title>infraestructura
19</title></rect><text x="-6" y="1.7508012820512822" dy=".35em" text-anchor="end" style="font-size: 11px; font-family: Arial, Helvetica; pointer-events: none;">infraestructura</text></g><g class="node" transform="translate(790,252.14743589743588)"><rect height="2.764423076923077" width="10" style="fill: rgb(102, 102, 102);"><title>internet
15</title></rect><text x="-6" y="1.3822115384615385" dy=".35em" text-anchor="end" style="font-size: 11px; font-family: Arial, Helvetica; pointer-events: none;">internet</text></g><g class="node" transform="translate(790,277.8605769230769)"><rect height="7.740384615384616" width="10" style="fill: rgb(102, 102, 102);"><title>jóvenes
42</title></rect><text x="-6" y="3.870192307692308" dy=".35em" text-anchor="end" style="font-size: 11px; font-family: Arial, Helvetica; pointer-events: none;">jóvenes</text></g><g class="node" transform="translate(790,264.91185897435895)"><rect height="2.948717948717949" width="10" style="fill: rgb(102, 102, 102);"><title>justicia
16</title></rect><text x="-6" y="1.4743589743589745" dy=".35em" text-anchor="end" style="font-size: 11px; font-family: Arial, Helvetica; pointer-events: none;">justicia</text></g><g class="node" transform="translate(790,295.60096153846155)"><rect height="12.900641025641026" width="10" style="fill: rgb(102, 102, 102);"><title>ley
70</title></rect><text x="-6" y="6.450320512820513" dy=".35em" text-anchor="end" style="font-size: 11px; font-family: Arial, Helvetica; pointer-events: none;">ley</text></g><g class="node" transform="translate(790,318.5016025641026)"><rect height="25.248397435897438" width="10" style="fill: rgb(102, 102, 102);"><title>mundo
137</title></rect><text x="-6" y="12.624198717948719" dy=".35em" text-anchor="end" style="font-size: 11px; font-family: Arial, Helvetica; pointer-events: none;">mundo</text></g><g class="node" transform="translate(790,353.75000000000006)"><rect height="5.160256410256411" width="10" style="fill: rgb(102, 102, 102);"><title>personas
28</title></rect><text x="-6" y="2.5801282051282053" dy=".35em" text-anchor="end" style="font-size: 11px; font-family: Arial, Helvetica; pointer-events: none;">personas</text></g><g class="node" transform="translate(790,368.91025641025647)"><rect height="3.5016025641025643" width="10" style="fill: rgb(102, 102, 102);"><title>política
19</title></rect><text x="-6" y="1.7508012820512822" dy=".35em" text-anchor="end" style="font-size: 11px; font-family: Arial, Helvetica; pointer-events: none;">política</text></g><g class="node" transform="translate(790,382.411858974359)"><rect height="2.764423076923077" width="10" style="fill: rgb(102, 102, 102);"><title>presidente
15</title></rect><text x="-6" y="1.3822115384615385" dy=".35em" text-anchor="end" style="font-size: 11px; font-family: Arial, Helvetica; pointer-events: none;">presidente</text></g><g class="node" transform="translate(790,395.1762820512821)"><rect height="9.214743589743591" width="10" style="fill: rgb(102, 102, 102);"><title>programa
50</title></rect><text x="-6" y="4.607371794871796" dy=".35em" text-anchor="end" style="font-size: 11px; font-family: Arial, Helvetica; pointer-events: none;">programa</text></g><g class="node" transform="translate(790,414.3910256410257)"><rect height="3.5016025641025643" width="10" style="fill: rgb(102, 102, 102);"><title>progreso
19</title></rect><text x="-6" y="1.7508012820512822" dy=".35em" text-anchor="end" style="font-size: 11px; font-family: Arial, Helvetica; pointer-events: none;">progreso</text></g><g class="node" transform="translate(790,427.89262820512823)"><rect height="2.5801282051282053" width="10" style="fill: rgb(102, 102, 102);"><title>proyecto
14</title></rect><text x="-6" y="1.2900641025641026" dy=".35em" text-anchor="end" style="font-size: 11px; font-family: Arial, Helvetica; pointer-events: none;">proyecto</text></g><g class="node" transform="translate(790,440.47275641025647)"><rect height="2.3958333333333335" width="10" style="fill: rgb(102, 102, 102);"><title>público
13</title></rect><text x="-6" y="1.1979166666666667" dy=".35em" text-anchor="end" style="font-size: 11px; font-family: Arial, Helvetica; pointer-events: none;">público</text></g><g class="node" transform="translate(790,452.8685897435898)"><rect height="5.344551282051283" width="10" style="fill: rgb(102, 102, 102);"><title>recursos
29</title></rect><text x="-6" y="2.6722756410256414" dy=".35em" text-anchor="end" style="font-size: 11px; font-family: Arial, Helvetica; pointer-events: none;">recursos</text></g><g class="node" transform="translate(790,468.21314102564105)"><rect height="20.088141025641026" width="10" style="fill: rgb(102, 102, 102);"><title>reforma
109</title></rect><text x="-6" y="10.044070512820513" dy=".35em" text-anchor="end" style="font-size: 11px; font-family: Arial, Helvetica; pointer-events: none;">reforma</text></g><g class="node" transform="translate(790,498.3012820512821)"><rect height="12.532051282051283" width="10" style="fill: rgb(102, 102, 102);"><title>salud
68</title></rect><text x="-6" y="6.266025641025641" dy=".35em" text-anchor="end" style="font-size: 11px; font-family: Arial, Helvetica; pointer-events: none;">salud</text></g><g class="node" transform="translate(790,520.8333333333334)"><rect height="3.685897435897436" width="10" style="fill: rgb(102, 102, 102);"><title>sistema
20</title></rect><text x="-6" y="1.842948717948718" dy=".35em" text-anchor="end" style="font-size: 11px; font-family: Arial, Helvetica; pointer-events: none;">sistema</text></g><g class="node" transform="translate(790,534.5192307692308)"><rect height="2.5801282051282053" width="10" style="fill: rgb(102, 102, 102);"><title>social
14</title></rect><text x="-6" y="1.2900641025641026" dy=".35em" text-anchor="end" style="font-size: 11px; font-family: Arial, Helvetica; pointer-events: none;">social</text></g><g class="node" transform="translate(790,547.099358974359)"><rect height="2.3958333333333335" width="10" style="fill: rgb(102, 102, 102);"><title>sociedad
13</title></rect><text x="-6" y="1.1979166666666667" dy=".35em" text-anchor="end" style="font-size: 11px; font-family: Arial, Helvetica; pointer-events: none;">sociedad</text></g><g class="node" transform="translate(790,559.4951923076924)"><rect height="2.2115384615384617" width="10" style="fill: rgb(102, 102, 102);"><title>superior
12</title></rect><text x="-6" y="1.1057692307692308" dy=".35em" text-anchor="end" style="font-size: 11px; font-family: Arial, Helvetica; pointer-events: none;">superior</text></g><g class="node" transform="translate(790,571.7067307692308)"><rect height="2.948717948717949" width="10" style="fill: rgb(102, 102, 102);"><title>tiempo
16</title></rect><text x="-6" y="1.4743589743589745" dy=".35em" text-anchor="end" style="font-size: 11px; font-family: Arial, Helvetica; pointer-events: none;">tiempo</text></g><g class="node" transform="translate(790,584.6554487179487)"><rect height="2.764423076923077" width="10" style="fill: rgb(102, 102, 102);"><title>trabajo
15</title></rect><text x="-6" y="1.3822115384615385" dy=".35em" text-anchor="end" style="font-size: 11px; font-family: Arial, Helvetica; pointer-events: none;">trabajo</text></g><g class="node" transform="translate(790,597.4198717948718)"><rect height="2.5801282051282053" width="10" style="fill: rgb(102, 102, 102);"><title>vida
14</title></rect><text x="-6" y="1.2900641025641026" dy=".35em" text-anchor="end" style="font-size: 11px; font-family: Arial, Helvetica; pointer-events: none;">vida</text></g></g></g></svg>